<svg width="58" height="34" viewBox="0 0 58 34" fill="none" xmlns="http://www.w3.org/2000/svg">
<path d="M39.1653 11.3333C40.462 11.3333 41.7069 10.8247 42.6325 9.91667C43.5582 9.00866 44.8031 8.5 46.0997 8.5H46.3878C48.5145 8.5 50.4615 9.6929 51.4273 11.5877L52.083 12.8741C52.4873 13.6673 53.3023 14.1667 54.1926 14.1667H55.9196C57.6589 14.1667 58.3879 16.3878 56.9869 17.4185C56.1271 18.0511 55.031 18.2697 53.9943 18.0155L51.7742 17.471C50.4983 17.1581 49.1895 17 47.8758 17C43.5895 17 39.4742 18.6815 36.4143 21.6831L32.9323 25.0987C28.9675 28.988 23.6353 31.1667 18.0814 31.1667C16.2301 32.9827 13.7403 34 11.147 34H6.5279L12.3046 28.3333L26.7465 22.6667L15.193 25.5C11.6481 25.5 8.40275 23.5116 6.79292 20.3533L6.5279 19.8333H15.193L6.31182 18.0909C3.08128 17.4571 0.751163 14.6255 0.751163 11.3333L12.3046 14.1667L6.21983 11.7791C1.54302 9.94404 -0.865243 4.75682 0.751163 0L1.91053 0.758185C12.4619 7.6584 24.7958 11.3333 37.4031 11.3333H39.1653Z" fill="#2693FF"/>
</svg>
